<svg width="165" height="149" viewBox="0 0 165 149" fill="none" xmlns="http://www.w3.org/2000/svg">
<ellipse cx="88" cy="76" rx="65" ry="63" fill="#3880FF"/>
<path fill-rule="evenodd" clip-rule="evenodd" d="M75.1667 54.3333C72.2935 54.3333 69.538 55.4746 67.5064 57.5063C65.4747 59.5379 64.3334 62.2934 64.3334 65.1666V86.8332C64.3334 89.7064 65.4747 92.4619 67.5064 94.4936C69.538 96.5252 72.2935 97.6666 75.1667 97.6666H96.8334C99.7066 97.6666 102.462 96.5252 104.494 94.4936C106.525 92.4619 107.667 89.7064 107.667 86.8332V65.1666C107.667 62.2934 106.525 59.5379 104.494 57.5063C102.462 55.4746 99.7066 54.3333 96.8334 54.3333H75.1667ZM94.0817 73.1486C94.2763 72.9409 94.4281 72.6969 94.5284 72.4305C94.6288 72.1641 94.6756 71.8806 94.6664 71.5961C94.6571 71.3116 94.5919 71.0317 94.4745 70.7725C94.3571 70.5132 94.1897 70.2795 93.982 70.0849C93.7743 69.8903 93.5303 69.7385 93.264 69.6382C92.9976 69.5379 92.7141 69.491 92.4296 69.5002C92.1451 69.5095 91.8652 69.5747 91.6059 69.6921C91.3466 69.8095 91.113 69.9769 90.9184 70.1846L84.2385 77.3129L80.9387 74.3814C80.5064 74.022 79.9512 73.8447 79.3906 73.887C78.83 73.9293 78.3078 74.1879 77.9342 74.6081C77.5607 75.0283 77.3652 75.5773 77.3889 76.139C77.4126 76.7007 77.6538 77.2312 78.0614 77.6184L82.9364 81.9517C83.3582 82.3264 83.9095 82.5218 84.4732 82.4963C85.0368 82.4708 85.5683 82.2265 85.9545 81.8153L94.0795 73.1486H94.0817Z" fill="#E3F2FD"/>
<circle cx="35.5" cy="6.5" r="6.5" fill="#76A8FF"/>
<circle cx="3" cy="101" r="3" fill="#76A8FF"/>
<circle cx="150" cy="130" r="3" fill="#76A8FF"/>
<circle cx="54" cy="147" r="2" fill="#76A8FF"/>
<circle cx="113" cy="144" r="1" fill="#76A8FF"/>
<circle cx="98" cy="3" r="2" fill="#76A8FF"/>
<circle cx="162" cy="99" r="3" fill="#76A8FF"/>
<circle cx="151.5" cy="18.5" r="5.5" fill="#76A8FF"/>
</svg>
