<svg width="60" height="60" viewBox="0 0 60 60" fill="none" xmlns="http://www.w3.org/2000/svg">
<circle cx="30" cy="30" r="30" fill="#FFF9E0"/>
<path d="M21.4062 20C20.3702 20 19.3767 20.4116 18.6441 21.1441C17.9116 21.8767 17.5 22.8702 17.5 23.9062V36.0938C17.5 37.1298 17.9116 38.1233 18.6441 38.8559C19.3767 39.5884 20.3702 40 21.4062 40H38.5938C39.6298 40 40.6233 39.5884 41.3559 38.8559C42.0884 38.1233 42.5 37.1298 42.5 36.0938V23.9062C42.5 22.8702 42.0884 21.8767 41.3559 21.1441C40.6233 20.4116 39.6298 20 38.5938 20H21.4062ZM26.25 27.5C26.25 27.9973 26.0525 28.4742 25.7008 28.8258C25.3492 29.1775 24.8723 29.375 24.375 29.375C23.8777 29.375 23.4008 29.1775 23.0492 28.8258C22.6975 28.4742 22.5 27.9973 22.5 27.5C22.5 27.0027 22.6975 26.5258 23.0492 26.1742C23.4008 25.8225 23.8777 25.625 24.375 25.625C24.8723 25.625 25.3492 25.8225 25.7008 26.1742C26.0525 26.5258 26.25 27.0027 26.25 27.5ZM29.0625 29.375C28.6481 29.375 28.2507 29.2104 27.9576 28.9174C27.6646 28.6243 27.5 28.2269 27.5 27.8125C27.5 27.3981 27.6646 27.0007 27.9576 26.7076C28.2507 26.4146 28.6481 26.25 29.0625 26.25C29.4769 26.25 29.8743 26.4146 30.1674 26.7076C30.4604 27.0007 30.625 27.3981 30.625 27.8125C30.625 28.2269 30.4604 28.6243 30.1674 28.9174C29.8743 29.2104 29.4769 29.375 29.0625 29.375ZM33.125 28.2812C33.125 27.85 33.475 27.5 33.9062 27.5H37.9688C38.176 27.5 38.3747 27.5823 38.5212 27.7288C38.6677 27.8753 38.75 28.074 38.75 28.2812C38.75 28.4885 38.6677 28.6872 38.5212 28.8337C38.3747 28.9802 38.176 29.0625 37.9688 29.0625H33.9062C33.475 29.0625 33.125 28.7125 33.125 28.2812ZM33.9062 30.9375H37.9688C38.176 30.9375 38.3747 31.0198 38.5212 31.1663C38.6677 31.3128 38.75 31.5115 38.75 31.7188C38.75 31.926 38.6677 32.1247 38.5212 32.2712C38.3747 32.4177 38.176 32.5 37.9688 32.5H33.9062C33.699 32.5 33.5003 32.4177 33.3538 32.2712C33.2073 32.1247 33.125 31.926 33.125 31.7188C33.125 31.5115 33.2073 31.3128 33.3538 31.1663C33.5003 31.0198 33.699 30.9375 33.9062 30.9375ZM21.25 31.5625C21.25 31.3139 21.3488 31.0754 21.5246 30.8996C21.7004 30.7238 21.9389 30.625 22.1875 30.625H26.5625C26.8111 30.625 27.0496 30.7238 27.2254 30.8996C27.4012 31.0754 27.5 31.3139 27.5 31.5625V32.5C27.5 32.5 27.5 34.6875 24.375 34.6875C21.25 34.6875 21.25 32.5 21.25 32.5V31.5625ZM29.375 33.75H28.455C28.5455 33.551 28.6166 33.3438 28.6675 33.1313C28.71 32.9514 28.7368 32.7682 28.7475 32.5838L28.7494 32.535V31.5625C28.7494 31.2269 28.6744 30.9094 28.5394 30.625H30.3125C30.5611 30.625 30.7996 30.7238 30.9754 30.8996C31.1512 31.0754 31.25 31.3139 31.25 31.5625V31.875C31.25 32.3723 31.0525 32.8492 30.7008 33.2008C30.3492 33.5525 29.8723 33.75 29.375 33.75Z" fill="#FFD300"/>
</svg>
