<svg width="24" height="26" viewBox="0 0 24 26" fill="none" xmlns="http://www.w3.org/2000/svg">
<path d="M20.75 25.5H3.25C2.58696 25.5 1.95107 25.2366 1.48223 24.7678C1.01339 24.2989 0.75 23.663 0.75 23V5.5C0.75 4.83696 1.01339 4.20107 1.48223 3.73223C1.95107 3.26339 2.58696 3 3.25 3H5.75V0.5H8.25V3H15.75V0.5H18.25V3H20.75C21.413 3 22.0489 3.26339 22.5178 3.73223C22.9866 4.20107 23.25 4.83696 23.25 5.5V23C23.25 23.663 22.9866 24.2989 22.5178 24.7678C22.0489 25.2366 21.413 25.5 20.75 25.5ZM3.25 10.5V23H20.75V10.5H3.25ZM3.25 5.5V8H20.75V5.5H3.25ZM10.75 21.0175L6.11625 16.3837L7.88375 14.6163L10.75 17.4825L16.1163 12.1163L17.8838 13.8837L10.75 21.0163V21.0175Z" fill="#807E7E"/>
</svg>
