<svg width="60" height="60" viewBox="0 0 60 60" fill="none" xmlns="http://www.w3.org/2000/svg">
<circle cx="30" cy="30" r="30" fill="#E3F2FD"/>
<path d="M39.75 18.75H34.525C34 17.3 32.625 16.25 31 16.25C29.375 16.25 28 17.3 27.475 18.75H22.25C20.875 18.75 19.75 19.875 19.75 21.25V38.75C19.75 40.125 20.875 41.25 22.25 41.25H39.75C41.125 41.25 42.25 40.125 42.25 38.75V21.25C42.25 19.875 41.125 18.75 39.75 18.75ZM31 18.75C31.6875 18.75 32.25 19.3125 32.25 20C32.25 20.6875 31.6875 21.25 31 21.25C30.3125 21.25 29.75 20.6875 29.75 20C29.75 19.3125 30.3125 18.75 31 18.75ZM31 23.75C33.075 23.75 34.75 25.425 34.75 27.5C34.75 29.575 33.075 31.25 31 31.25C28.925 31.25 27.25 29.575 27.25 27.5C27.25 25.425 28.925 23.75 31 23.75ZM38.5 38.75H23.5V37C23.5 34.5 28.5 33.125 31 33.125C33.5 33.125 38.5 34.5 38.5 37V38.75Z" fill="#1A96F0"/>
</svg>
