<svg width="60" height="60" viewBox="0 0 60 60" fill="none" xmlns="http://www.w3.org/2000/svg">
<circle cx="30" cy="30" r="30" fill="#E9F5EA"/>
<path d="M37.25 35.25V40.5H23.25V19.5H32V17.75H23.25C22.7859 17.75 22.3408 17.9344 22.0126 18.2626C21.6844 18.5908 21.5 19.0359 21.5 19.5V40.5C21.5 40.9641 21.6844 41.4092 22.0126 41.7374C22.3408 42.0656 22.7859 42.25 23.25 42.25H37.25C37.7141 42.25 38.1592 42.0656 38.4874 41.7374C38.8156 41.4092 39 40.9641 39 40.5V35.25H37.25Z" fill="#4AAF57"/>
<path d="M43.8475 21.04L40.96 18.1525C40.6983 17.896 40.3465 17.7523 39.98 17.7523C39.6135 17.7523 39.2617 17.896 39 18.1525L26.75 30.4025V35.25H31.5887L43.8387 23C44.0953 22.7383 44.2389 22.3865 44.2389 22.02C44.2389 21.6536 44.0953 21.3017 43.8387 21.04H43.8475ZM30.8625 33.5H28.5V31.1375L36.76 22.8688L39.1312 25.24L30.8625 33.5ZM40.365 24.0063L37.9937 21.635L39.98 19.6488L42.3512 22.02L40.365 24.0063Z" fill="#4AAF57"/>
</svg>
