<svg width="60" height="60" viewBox="0 0 60 60" fill="none" xmlns="http://www.w3.org/2000/svg">
<circle cx="30" cy="30" r="30" fill="#E3F2FD"/>
<path d="M24.375 31.875H31.875V33.75H24.375V31.875ZM24.375 27.1875H35.625V29.0625H24.375V27.1875ZM24.375 36.5625H29.0625V38.4375H24.375V36.5625Z" fill="#1A96F0"/>
<path d="M38.4375 19.6875H35.625V18.75C35.625 18.2527 35.4275 17.7758 35.0758 17.4242C34.7242 17.0725 34.2473 16.875 33.75 16.875H26.25C25.7527 16.875 25.2758 17.0725 24.9242 17.4242C24.5725 17.7758 24.375 18.2527 24.375 18.75V19.6875H21.5625C21.0652 19.6875 20.5883 19.885 20.2367 20.2367C19.885 20.5883 19.6875 21.0652 19.6875 21.5625V41.25C19.6875 41.7473 19.885 42.2242 20.2367 42.5758C20.5883 42.9275 21.0652 43.125 21.5625 43.125H38.4375C38.9348 43.125 39.4117 42.9275 39.7633 42.5758C40.115 42.2242 40.3125 41.7473 40.3125 41.25V21.5625C40.3125 21.0652 40.115 20.5883 39.7633 20.2367C39.4117 19.885 38.9348 19.6875 38.4375 19.6875V19.6875ZM26.25 18.75H33.75V22.5H26.25V18.75ZM38.4375 41.25H21.5625V21.5625H24.375V24.375H35.625V21.5625H38.4375V41.25Z" fill="#1A96F0"/>
</svg>
