<svg width="60" height="60" viewBox="0 0 60 60" fill="none" xmlns="http://www.w3.org/2000/svg">
<circle cx="30" cy="30" r="30" fill="#F3E5F5"/>
<path d="M19 24.5C19.0004 22.5185 19.6547 20.5926 20.8613 19.021C22.0679 17.4493 23.7595 16.3198 25.6736 15.8076C27.5877 15.2954 29.6173 15.4292 31.4476 16.1882C33.2779 16.9472 34.8065 18.289 35.7964 20.0055C36.7863 21.7219 37.1821 23.7171 36.9224 25.6814C36.6627 27.6457 35.762 29.4694 34.36 30.8697C32.958 32.2699 31.1332 33.1683 29.1685 33.4255C27.2039 33.6828 25.2092 33.2845 23.494 32.2925L19.987 33.4625C19.8575 33.5057 19.7185 33.5128 19.5853 33.4829C19.452 33.453 19.3294 33.3872 19.2307 33.2927C19.1321 33.1982 19.0611 33.0786 19.0255 32.9467C18.9898 32.8149 18.9909 32.6758 19.0285 32.5445L20.0965 28.808C19.3751 27.4868 18.998 26.0053 19 24.5ZM25.75 22.25C25.5511 22.25 25.3604 22.329 25.2197 22.4696C25.079 22.6103 25 22.8011 25 23C25 23.1989 25.079 23.3897 25.2197 23.5303C25.3604 23.671 25.5511 23.75 25.75 23.75H30.25C30.4489 23.75 30.6397 23.671 30.7804 23.5303C30.921 23.3897 31 23.1989 31 23C31 22.8011 30.921 22.6103 30.7804 22.4696C30.6397 22.329 30.4489 22.25 30.25 22.25H25.75ZM28.75 25.25H25.75C25.5511 25.25 25.3604 25.329 25.2197 25.4696C25.079 25.6103 25 25.8011 25 26C25 26.1989 25.079 26.3897 25.2197 26.5303C25.3604 26.671 25.5511 26.75 25.75 26.75H28.75C28.9489 26.75 29.1397 26.671 29.2804 26.5303C29.421 26.3897 29.5 26.1989 29.5 26C29.5 25.8011 29.421 25.6103 29.2804 25.4696C29.1397 25.329 28.9489 25.25 28.75 25.25Z" fill="#9D28AC"/>
<path d="M34.414 36.4205L30.811 34.6205C31.471 34.436 32.1055 34.19 32.7055 33.8885L34.75 34.9115L41.5 31.5365V30.5C41.5 30.1022 41.342 29.7206 41.0607 29.4393C40.7794 29.158 40.3978 29 40 29H37.489C37.7185 28.52 37.9105 28.0175 38.065 27.5H40C40.7956 27.5 41.5587 27.8161 42.1213 28.3787C42.6839 28.9413 43 29.7044 43 30.5V38C43 38.7956 42.6839 39.5587 42.1213 40.1213C41.5587 40.6839 40.7956 41 40 41H29.5C28.7044 41 27.9413 40.6839 27.3787 40.1213C26.8161 39.5587 26.5 38.7956 26.5 38V34.895C26.9905 34.964 27.49 35 28 35V38C28 38.3978 28.158 38.7794 28.4393 39.0607C28.7206 39.342 29.1022 39.5 29.5 39.5H40C40.3978 39.5 40.7794 39.342 41.0607 39.0607C41.342 38.7794 41.5 38.3978 41.5 38V33.2135L35.086 36.4205C34.9817 36.4728 34.8667 36.5 34.75 36.5C34.6333 36.5 34.5183 36.4728 34.414 36.4205Z" fill="#9D28AC"/>
</svg>
