<svg width="60" height="60" viewBox="0 0 60 60" fill="none" xmlns="http://www.w3.org/2000/svg">
<circle cx="30" cy="30" r="30" fill="#FFF2E4"/>
<path d="M32.1875 16.5H27.8125C27.1207 16.5 26.4532 16.755 25.9376 17.2162C25.4219 17.6774 25.0944 18.3125 25.0175 19H22.8125C22.0666 19 21.3512 19.2963 20.8238 19.8238C20.2963 20.3512 20 21.0666 20 21.8125V38.6875C20 39.4334 20.2963 40.1488 20.8238 40.6762C21.3512 41.2037 22.0666 41.5 22.8125 41.5H37.1875C37.5568 41.5 37.9226 41.4273 38.2638 41.2859C38.605 41.1446 38.9151 40.9374 39.1762 40.6762C39.4374 40.4151 39.6446 40.105 39.7859 39.7638C39.9273 39.4226 40 39.0568 40 38.6875V21.8125C40 21.4432 39.9273 21.0774 39.7859 20.7362C39.6446 20.395 39.4374 20.0849 39.1762 19.8238C38.9151 19.5626 38.605 19.3554 38.2638 19.2141C37.9226 19.0727 37.5568 19 37.1875 19H34.9825C34.9056 18.3125 34.5781 17.6774 34.0624 17.2162C33.5468 16.755 32.8793 16.5 32.1875 16.5ZM27.8125 18.375H32.1875C32.4361 18.375 32.6746 18.4738 32.8504 18.6496C33.0262 18.8254 33.125 19.0639 33.125 19.3125C33.125 19.5611 33.0262 19.7996 32.8504 19.9754C32.6746 20.1512 32.4361 20.25 32.1875 20.25H27.8125C27.5639 20.25 27.3254 20.1512 27.1496 19.9754C26.9738 19.7996 26.875 19.5611 26.875 19.3125C26.875 19.0639 26.9738 18.8254 27.1496 18.6496C27.3254 18.4738 27.5639 18.375 27.8125 18.375ZM36.6 24.9C36.7756 25.0758 36.8742 25.3141 36.8742 25.5625C36.8742 25.8109 36.7756 26.0492 36.6 26.225L34.1 28.725C33.9242 28.9006 33.6859 28.9992 33.4375 28.9992C33.1891 28.9992 32.9508 28.9006 32.775 28.725L31.525 27.475C31.4329 27.3892 31.359 27.2857 31.3078 27.1707C31.2565 27.0557 31.229 26.9315 31.2268 26.8057C31.2245 26.6798 31.2477 26.5547 31.2948 26.438C31.342 26.3213 31.4122 26.2152 31.5012 26.1262C31.5902 26.0372 31.6963 25.967 31.813 25.9198C31.9297 25.8727 32.0548 25.8495 32.1807 25.8518C32.3065 25.854 32.4307 25.8815 32.5457 25.9328C32.6607 25.984 32.7642 26.0579 32.85 26.15L33.4375 26.7375L35.275 24.9C35.4508 24.7244 35.6891 24.6258 35.9375 24.6258C36.1859 24.6258 36.4242 24.7244 36.6 24.9ZM36.6 33.1L34.1 35.6C33.9242 35.7756 33.6859 35.8742 33.4375 35.8742C33.1891 35.8742 32.9508 35.7756 32.775 35.6L31.525 34.35C31.4329 34.2642 31.359 34.1607 31.3078 34.0457C31.2565 33.9307 31.229 33.8065 31.2268 33.6807C31.2245 33.5548 31.2477 33.4297 31.2948 33.313C31.342 33.1963 31.4122 33.0902 31.5012 33.0012C31.5902 32.9122 31.6963 32.842 31.813 32.7948C31.9297 32.7477 32.0548 32.7245 32.1807 32.7268C32.3065 32.729 32.4307 32.7565 32.5457 32.8078C32.6607 32.859 32.7642 32.9329 32.85 33.025L33.4375 33.6125L35.275 31.775C35.3608 31.6829 35.4643 31.609 35.5793 31.5578C35.6943 31.5065 35.8185 31.479 35.9443 31.4768C36.0702 31.4745 36.1953 31.4977 36.312 31.5448C36.4287 31.592 36.5348 31.6622 36.6238 31.7512C36.7128 31.8402 36.783 31.9463 36.8302 32.063C36.8773 32.1797 36.9005 32.3048 36.8982 32.4307C36.896 32.5565 36.8685 32.6807 36.8172 32.7957C36.766 32.9107 36.6921 33.0142 36.6 33.1ZM23.75 26.8125C23.75 26.5639 23.8488 26.3254 24.0246 26.1496C24.2004 25.9738 24.4389 25.875 24.6875 25.875H29.0625C29.3111 25.875 29.5496 25.9738 29.7254 26.1496C29.9012 26.3254 30 26.5639 30 26.8125C30 27.0611 29.9012 27.2996 29.7254 27.4754C29.5496 27.6512 29.3111 27.75 29.0625 27.75H24.6875C24.4389 27.75 24.2004 27.6512 24.0246 27.4754C23.8488 27.2996 23.75 27.0611 23.75 26.8125ZM24.6875 32.75H29.0625C29.3111 32.75 29.5496 32.8488 29.7254 33.0246C29.9012 33.2004 30 33.4389 30 33.6875C30 33.9361 29.9012 34.1746 29.7254 34.3504C29.5496 34.5262 29.3111 34.625 29.0625 34.625H24.6875C24.4389 34.625 24.2004 34.5262 24.0246 34.3504C23.8488 34.1746 23.75 33.9361 23.75 33.6875C23.75 33.4389 23.8488 33.2004 24.0246 33.0246C24.2004 32.8488 24.4389 32.75 24.6875 32.75Z" fill="#FFAF50"/>
</svg>
