<svg width="60" height="60" viewBox="0 0 60 60" fill="none" xmlns="http://www.w3.org/2000/svg">
<circle cx="30" cy="30" r="30" fill="#FDE8E6"/>
<path d="M40.167 18.1275C40.2693 18.196 40.3532 18.2886 40.4113 18.3971C40.4694 18.5057 40.4999 18.6269 40.5 18.75V30C40.5 30.1498 40.4551 30.2961 40.3711 30.4202C40.2872 30.5442 40.168 30.6403 40.029 30.696L39.75 30L40.029 30.696L40.0245 30.6975L40.0155 30.702L39.981 30.7155C39.7838 30.7939 39.5853 30.8689 39.3855 30.9405C38.9895 31.083 38.439 31.275 37.815 31.4655C36.591 31.8435 34.9965 32.25 33.75 32.25C32.4795 32.25 31.428 31.83 30.513 31.4625L30.471 31.4475C29.52 31.065 28.71 30.75 27.75 30.75C26.7 30.75 25.293 31.095 24.0945 31.4655C23.5579 31.6327 23.0262 31.8153 22.5 32.013V41.25C22.5 41.4489 22.421 41.6397 22.2803 41.7803C22.1397 41.921 21.9489 42 21.75 42C21.5511 42 21.3603 41.921 21.2197 41.7803C21.079 41.6397 21 41.4489 21 41.25V18.75C21 18.5511 21.079 18.3603 21.2197 18.2197C21.3603 18.079 21.5511 18 21.75 18C21.9489 18 22.1397 18.079 22.2803 18.2197C22.421 18.3603 22.5 18.5511 22.5 18.75V19.173C22.839 19.0545 23.244 18.918 23.685 18.783C24.909 18.408 26.505 18 27.75 18C29.01 18 30.036 18.4155 30.9315 18.7785L30.996 18.8055C31.929 19.182 32.742 19.5 33.75 19.5C34.8 19.5 36.207 19.155 37.4055 18.7845C38.0885 18.5712 38.7634 18.3331 39.429 18.0705L39.4575 18.06L39.4635 18.057H39.465" fill="#F54336"/>
</svg>
