<svg width="23" height="25" viewBox="0 0 23 25" fill="none" xmlns="http://www.w3.org/2000/svg">
<path fill-rule="evenodd" clip-rule="evenodd" d="M11.5 0C10.4219 0 8.62032 0.414063 6.92501 0.875C5.19063 1.34375 3.4422 1.89844 2.41407 2.23438C1.98421 2.37633 1.60312 2.63666 1.31457 2.98547C1.02601 3.33428 0.841707 3.75741 0.782821 4.20625C-0.148429 11.2016 2.01251 16.3859 4.63438 19.8156C5.74623 21.2828 7.07193 22.5747 8.56719 23.6484C9.17032 24.075 9.7297 24.4016 10.2047 24.625C10.6422 24.8313 11.1125 25 11.5 25C11.8875 25 12.3563 24.8313 12.7953 24.625C13.368 24.3467 13.9158 24.02 14.4328 23.6484C15.9281 22.5748 17.2538 21.2828 18.3656 19.8156C20.9875 16.3859 23.1484 11.2016 22.2172 4.20625C22.1584 3.75719 21.9742 3.33381 21.6856 2.98474C21.3971 2.63566 21.0159 2.37505 20.5859 2.23281C19.0935 1.74346 17.5894 1.2902 16.075 0.873438C14.3797 0.415625 12.5781 0 11.5 0ZM10.6406 13.2844L10.0938 7.80469C10.0729 7.60756 10.0938 7.40827 10.155 7.21973C10.2162 7.03119 10.3163 6.85763 10.4489 6.71029C10.5815 6.56296 10.7436 6.44515 10.9247 6.3645C11.1058 6.28386 11.3018 6.24219 11.5 6.24219C11.6982 6.24219 11.8942 6.28386 12.0753 6.3645C12.2564 6.44515 12.4185 6.56296 12.5511 6.71029C12.6837 6.85763 12.7838 7.03119 12.845 7.21973C12.9062 7.40827 12.9271 7.60756 12.9063 7.80469L12.3594 13.2844C12.341 13.4996 12.2425 13.7002 12.0834 13.8463C11.9242 13.9924 11.7161 14.0735 11.5 14.0735C11.284 14.0735 11.0758 13.9924 10.9166 13.8463C10.7575 13.7002 10.659 13.4996 10.6406 13.2844ZM11.5031 18.75C11.0887 18.75 10.6913 18.5854 10.3983 18.2924C10.1053 17.9993 9.94063 17.6019 9.94063 17.1875C9.94063 16.7731 10.1053 16.3757 10.3983 16.0826C10.6913 15.7896 11.0887 15.625 11.5031 15.625C11.9175 15.625 12.315 15.7896 12.608 16.0826C12.901 16.3757 13.0656 16.7731 13.0656 17.1875C13.0656 17.6019 12.901 17.9993 12.608 18.2924C12.315 18.5854 11.9175 18.75 11.5031 18.75Z" fill="#3880FF"/>
</svg>
